{"title":"Tears of the Sun 2003 DVDRip Xvid AC3 BigPerm LKRG","uid":6734394,"size":1124458691,"categoryP":"video","categoryS":"movies","magnet":"?xt=urn:btih:e6936ecfff696cd3009c2fddca7bd5918d74a0cb&amp;dn=Tears+of+the+Sun+2003+DVDRip+Xvid+AC3+BigPerm+LKRG&amp;tr=udp%3A%2F%2Ftracker.openbittorrent.com%3A80&amp;tr=udp%3A%2F%2Fopen.demonii.com%3A1337&amp;tr=udp%3A%2F%2Ftracker.coppersurfer.tk%3A6969&amp;tr=udp%3A%2F%2Fexodus.desync.com%3A6969","seeders":1,"leechers":0,"uploader":".BONE.","files":3,"time":1318270536,"description":"PLOT\n\nBruce Willis plays a Special-Ops commander who leads his team into the jungle of Nigeria to rescue a doctor\nplayed by Monica Belluci who will only go with them if they agree to rescue 70 refugees too.\n &lt;a href=&quot;\nhttp://www.imdb.com/title/tt0314353/&quot; rel=&quot;nofollow&quot; target=&quot;_NEW&quot;&gt;\nhttp://www.imdb.com/title/tt0314353/&lt;/a&gt;\n\nEncoded By .......: LKRG\nRuntime ..........: 2h 0mn\nFile Size ........: 1.05 GB\nResolution .......: 704 x 396\nIMDb URL .........: http://www.imdb.com/title/tt0314353/\nGenre ............: Action,Drama,Thriller\nLanguage .........: English\nSubtitles ........: None\nVideo\nID : 0\nFormat : MPEG-4 Visual\nFormat profile : Advanced Simple@L5\nFormat settings, BVOP : Yes\nFormat settings, QPel : No\nFormat settings, GMC : No warppoints\nFormat settings, Matrix : Default (H.263)\nCodec ID : XVID\nCodec ID/Hint : XviD\nDuration : 2h 0mn\nBit rate : 35.6 Kbps\nWidth : 704 pixels\nHeight : 396 pixels\nDisplay aspect ratio : 16:9\nFrame rate : 23.976 fps\nColor space : YUV\nChroma subsampling : 4:2:0\nBit depth : 8 bits\nScan type : Progressive\nCompression mode : Lossy\nBits/(Pixel*Frame) : 0.005\nStream size : 30.7 MiB (3%)\nWriting library : XviD 1.2.1 (UTC 2008-12-04)\nAudio\nID : 1\nFormat : AC-3\nFormat/Info : Audio Coding 3\nCodec ID : 2000\nDuration : 2h 0mn\nBit rate mode : Constant\nBit rate : 448 Kbps\nChannel(s) : 6 channels\nSampling rate : 48.0 KHz\nBit depth : 16 bits\nCompression mode : Lossy\nStream size : 387 MiB (36%)\nAlignment : Aligned on interleaves\n &lt;a href=&quot;\nhttp://www.shotpix.com/images/95943133938529269371.png&quot; rel=&quot;nofollow&quot; target=&quot;_NEW&quot;&gt;\nhttp://www.shotpix.com/images/95943133938529269371.png&lt;/a&gt;\n &lt;a href=&quot;\nhttp://www.shotpix.com/images/06431297302231440374.png&quot; rel=&quot;nofollow&quot; target=&quot;_NEW&quot;&gt;\nhttp://www.shotpix.com/images/06431297302231440374.png&lt;/a&gt;\n &lt;a href=&quot;\nhttp://www.shotpix.com/images/31608919912266930465.png&quot; rel=&quot;nofollow&quot; target=&quot;_NEW&quot;&gt;\nhttp://www.shotpix.com/images/31608919912266930465.png&lt;/a&gt;\n &lt;a href=&quot;\nhttp://www.shotpix.com/images/36482487601523844855.png&quot; rel=&quot;nofollow&quot; target=&quot;_NEW&quot;&gt;\nhttp://www.shotpix.com/images/36482487601523844855.png&lt;/a&gt;\n &lt;a href=&quot;\nhttp://www.shotpix.com/images/90676316213611321994.png&quot; rel=&quot;nofollow&quot; target=&quot;_NEW&quot;&gt;\nhttp://www.shotpix.com/images/90676316213611321994.png&lt;/a&gt;\n","torrent":{"xt":"urn:btih:e6936ecfff696cd3009c2fddca7bd5918d74a0cb","amp;dn":"Tears+of+the+Sun+2003+DVDRip+Xvid+AC3+BigPerm+LKRG","amp;tr":["udp%3A%2F%2Ftracker.openbittorrent.com%3A80","udp%3A%2F%2Fopen.demonii.com%3A1337","udp%3A%2F%2Ftracker.coppersurfer.tk%3A6969","udp%3A%2F%2Fexodus.desync.com%3A6969"],"infoHash":"e6936ecfff696cd3009c2fddca7bd5918d74a0cb","infoHashBuffer":{"type":"Buffer","data":[230,147,110,207,255,105,108,211,0,156,47,221,202,123,213,145,141,116,160,203]},"announce":[],"urlList":[]}}